$MeshFormat
4.1 0 8
$EndMeshFormat
$Entities
0 0 1 0
1 -86.17537689208984 21.36579513549805 0 -26.17537498474121 81.36579895019531 300 0 0 
$EndEntities
$Nodes
1 8 1 8
2 1 0 8
1
2
3
4
5
6
7
8
-86.17537689208984 81.36579895019531 300
-86.17537689208984 81.36579895019531 0
-86.17537689208984 21.36579513549805 0
-86.17537689208984 21.36579513549805 300
-26.17537498474121 21.36579513549805 0
-26.17537498474121 21.36579513549805 300
-26.17537498474121 81.36579895019531 0
-26.17537498474121 81.36579895019531 300
$EndNodes
$Elements
1 12 1 12
2 1 2 12
1 1 2 3 
2 3 4 1 
3 4 3 5 
4 5 6 4 
5 6 5 7 
6 7 8 6 
7 8 7 2 
8 2 1 8 
9 6 8 1 
10 1 4 6 
11 5 3 2 
12 2 7 5 
$EndElements
