ISO-10303-21;
HEADER;
FILE_DESCRIPTION (( 'STEP AP203' ),
    '1' );
FILE_NAME ('Áã¼þ1.STEP',
    '2026-03-22T07:16:00',
    ( '3035910657@qq.com' ),
    ( '' ),
    'SwSTEP 2.0',
    'SolidWorks 2023',
    '' );
FILE_SCHEMA (( 'CONFIG_CONTROL_DESIGN' ));
ENDSEC;

DATA;
#1 = PRODUCT ( '\X2\96f64ef6\X0\1', '\X2\96f64ef6\X0\1', '', ( #170 ) ) ;
#2 = CARTESIAN_POINT ( 'NONE',  ( 150.0000000000000000, -19.99999999999998934, 30.00000000000000000 ) ) ;
#3 = CARTESIAN_POINT ( 'NONE',  ( 0.000000000000000000, 0.000000000000000000, 30.00000000000000000 ) ) ;
#4 = DIRECTION ( 'NONE',  ( -0.000000000000000000, -0.000000000000000000, -1.000000000000000000 ) ) ;
#5 = ORIENTED_EDGE ( 'NONE', *, *, #31, .T. ) ;
#6 = PLANE ( 'NONE',  #52 ) ;
#7 = CC_DESIGN_PERSON_AND_ORGANIZATION_ASSIGNMENT ( #87, #64, ( #86 ) ) ;
#8 = FACE_OUTER_BOUND ( 'NONE', #99, .T. ) ;
#9 = VECTOR ( 'NONE', #75, 1000.000000000000000 ) ;
#10 = APPROVAL_DATE_TIME ( #124, #107 ) ;
#11 = ORIENTED_EDGE ( 'NONE', *, *, #72, .T. ) ;
#12 = PERSON_AND_ORGANIZATION_ROLE ( 'design_owner' ) ;
#13 = CC_DESIGN_SECURITY_CLASSIFICATION ( #86, ( #200 ) ) ;
#14 = VERTEX_POINT ( 'NONE', #80 ) ;
#15 =( LENGTH_UNIT ( ) NAMED_UNIT ( * ) SI_UNIT ( .MILLI., .METRE. ) );
#16 = ADVANCED_BREP_SHAPE_REPRESENTATION ( '\X2\96f64ef6\X0\1', ( #204, #118 ), #91 ) ;
#17 = ORGANIZATION ( 'æœª', 'æœª', '' ) ;
#18 = ADVANCED_FACE ( 'NONE', ( #8 ), #154, .T. ) ;
#19 = ADVANCED_FACE ( 'NONE', ( #27 ), #156, .F. ) ;
#20 = VERTEX_POINT ( 'NONE', #206 ) ;
#21 = CARTESIAN_POINT ( 'NONE',  ( -150.0000000000000284, -19.99999999999998934, 30.00000000000000000 ) ) ;
#22 = DIRECTION ( 'NONE',  ( 0.000000000000000000, -0.000000000000000000, -1.000000000000000000 ) ) ;
#23 = DIRECTION ( 'NONE',  ( 1.000000000000000000, 0.000000000000000000, 0.000000000000000000 ) ) ;
#24 = EDGE_LOOP ( 'NONE', ( #174, #228, #121, #84 ) ) ;
#25 = EDGE_CURVE ( 'NONE', #14, #217, #73, .T. ) ;
#26 = DIRECTION ( 'NONE',  ( -1.000000000000000000, 0.000000000000000000, -0.000000000000000000 ) ) ;
#27 = FACE_OUTER_BOUND ( 'NONE', #191, .T. ) ;
#28 = DATE_AND_TIME ( #173, #113 ) ;
#29 = AXIS2_PLACEMENT_3D ( 'NONE', #103, #175, #36 ) ;
#30 = SECURITY_CLASSIFICATION_LEVEL ( 'unclassified' ) ;
#31 = EDGE_CURVE ( 'NONE', #209, #20, #163, .T. ) ;
#32 = AXIS2_PLACEMENT_3D ( 'NONE', #42, #116, #190 ) ;
#33 = DATE_AND_TIME ( #53, #54 ) ;
#34 = SHAPE_DEFINITION_REPRESENTATION ( #207, #16 ) ;
#35 = ORIENTED_EDGE ( 'NONE', *, *, #194, .F. ) ;
#36 = DIRECTION ( 'NONE',  ( 0.000000000000000000, 0.000000000000000000, -1.000000000000000000 ) ) ;
#37 = VECTOR ( 'NONE', #92, 1000.000000000000000 ) ;
#38 = CARTESIAN_POINT ( 'NONE',  ( -150.0000000000000284, 20.00000000000000000, 0.000000000000000000 ) ) ;
#39 = FACE_OUTER_BOUND ( 'NONE', #201, .T. ) ;
#40 = LINE ( 'NONE', #114, #128 ) ;
#41 = DIRECTION ( 'NONE',  ( -1.000000000000000000, -0.000000000000000000, -0.000000000000000000 ) ) ;
#42 = CARTESIAN_POINT ( 'NONE',  ( 0.000000000000000000, 0.000000000000000000, 0.000000000000000000 ) ) ;
#43 = ORIENTED_EDGE ( 'NONE', *, *, #140, .T. ) ;
#44 = VECTOR ( 'NONE', #219, 1000.000000000000000 ) ;
#45 = CARTESIAN_POINT ( 'NONE',  ( 150.0000000000000000, -19.99999999999998934, 30.00000000000000000 ) ) ;
#46 = APPROVAL_PERSON_ORGANIZATION ( #211, #107, #234 ) ;
#47 = ORIENTED_EDGE ( 'NONE', *, *, #224, .F. ) ;
#48 = CARTESIAN_POINT ( 'NONE',  ( 0.000000000000000000, 0.000000000000000000, 0.000000000000000000 ) ) ;
#49 = ORIENTED_EDGE ( 'NONE', *, *, #182, .F. ) ;
#50 = CALENDAR_DATE ( 2026, 22, 3 ) ;
#51 = APPROVAL_STATUS ( 'not_yet_approved' ) ;
#52 = AXIS2_PLACEMENT_3D ( 'NONE', #98, #223, #130 ) ;
#53 = CALENDAR_DATE ( 2026, 22, 3 ) ;
#54 = LOCAL_TIME ( 15, 16, 0.000000000000000000, #216 ) ;
#55 = ADVANCED_FACE ( 'NONE', ( #39 ), #78, .F. ) ;
#56 = FACE_OUTER_BOUND ( 'NONE', #195, .T. ) ;
#57 = CARTESIAN_POINT ( 'NONE',  ( -150.0000000000000284, 20.00000000000000000, 30.00000000000000000 ) ) ;
#58 = LINE ( 'NONE', #225, #37 ) ;
#59 = CC_DESIGN_DATE_AND_TIME_ASSIGNMENT ( #168, #81, ( #86 ) ) ;
#60 = FACE_OUTER_BOUND ( 'NONE', #108, .T. ) ;
#61 = UNCERTAINTY_MEASURE_WITH_UNIT (LENGTH_MEASURE( 1.000000000000000082E-05 ), #15, 'distance_accuracy_value', 'NONE');
#62 = VERTEX_POINT ( 'NONE', #229 ) ;
#63 = ORIENTED_EDGE ( 'NONE', *, *, #31, .F. ) ;
#64 = PERSON_AND_ORGANIZATION_ROLE ( 'classification_officer' ) ;
#65 = DATE_AND_TIME ( #159, #66 ) ;
#66 = LOCAL_TIME ( 15, 16, 0.000000000000000000, #85 ) ;
#67 = COORDINATED_UNIVERSAL_TIME_OFFSET ( 8, 0, .AHEAD. ) ;
#68 = APPLICATION_CONTEXT ( 'configuration controlled 3d designs of mechanical parts and assemblies' ) ;
#69 = ADVANCED_FACE ( 'NONE', ( #56 ), #6, .F. ) ;
#70 = APPROVAL_DATE_TIME ( #65, #153 ) ;
#71 = VECTOR ( 'NONE', #150, 1000.000000000000000 ) ;
#72 = EDGE_CURVE ( 'NONE', #165, #97, #187, .T. ) ;
#73 = LINE ( 'NONE', #38, #101 ) ;
#74 = CARTESIAN_POINT ( 'NONE',  ( 150.0000000000000000, -19.99999999999998934, 0.000000000000000000 ) ) ;
#75 = DIRECTION ( 'NONE',  ( 1.000000000000000000, 0.000000000000000000, 0.000000000000000000 ) ) ;
#76 = DIRECTION ( 'NONE',  ( -1.000000000000000000, -0.000000000000000000, -0.000000000000000000 ) ) ;
#77 = ORIENTED_EDGE ( 'NONE', *, *, #72, .F. ) ;
#78 = PLANE ( 'NONE',  #79 ) ;
#79 = AXIS2_PLACEMENT_3D ( 'NONE', #3, #155, #26 ) ;
#80 = CARTESIAN_POINT ( 'NONE',  ( 150.0000000000000000, 20.00000000000000000, 0.000000000000000000 ) ) ;
#81 = DATE_TIME_ROLE ( 'classification_date' ) ;
#82 = APPROVAL_ROLE ( '' ) ;
#83 = CARTESIAN_POINT ( 'NONE',  ( -150.0000000000000284, 20.00000000000000000, 0.000000000000000000 ) ) ;
#84 = ORIENTED_EDGE ( 'NONE', *, *, #102, .T. ) ;
#85 = COORDINATED_UNIVERSAL_TIME_OFFSET ( 8, 0, .AHEAD. ) ;
#86 = SECURITY_CLASSIFICATION ( '', '', #30 ) ;
#87 = PERSON_AND_ORGANIZATION ( #129, #17 ) ;
#88 = ORIENTED_EDGE ( 'NONE', *, *, #25, .F. ) ;
#89 = CARTESIAN_POINT ( 'NONE',  ( -150.0000000000000284, -19.99999999999998934, 0.000000000000000000 ) ) ;
#90 = CARTESIAN_POINT ( 'NONE',  ( -150.0000000000000284, -19.99999999999998934, 30.00000000000000000 ) ) ;
#91 =( GEOMETRIC_REPRESENTATION_CONTEXT ( 3 ) GLOBAL_UNCERTAINTY_ASSIGNED_CONTEXT ( ( #61 ) ) GLOBAL_UNIT_ASSIGNED_CONTEXT ( ( #15, #193, #138 ) ) REPRESENTATION_CONTEXT ( 'NONE', 'WORKASPACE' ) );
#92 = DIRECTION ( 'NONE',  ( -0.000000000000000000, -0.000000000000000000, -1.000000000000000000 ) ) ;
#93 = EDGE_CURVE ( 'NONE', #209, #165, #112, .T. ) ;
#94 = LOCAL_TIME ( 15, 16, 0.000000000000000000, #67 ) ;
#95 = PLANE ( 'NONE',  #181 ) ;
#96 = LINE ( 'NONE', #164, #161 ) ;
#97 = VERTEX_POINT ( 'NONE', #183 ) ;
#98 = CARTESIAN_POINT ( 'NONE',  ( 150.0000000000000000, -19.99999999999998934, 30.00000000000000000 ) ) ;
#99 = EDGE_LOOP ( 'NONE', ( #188, #49, #47, #88 ) ) ;
#100 = PERSON_AND_ORGANIZATION ( #129, #17 ) ;
#101 = VECTOR ( 'NONE', #76, 1000.000000000000000 ) ;
#102 = EDGE_CURVE ( 'NONE', #62, #14, #115, .T. ) ;
#103 = CARTESIAN_POINT ( 'NONE',  ( -150.0000000000000284, -19.99999999999998934, 30.00000000000000000 ) ) ;
#104 = ORIENTED_EDGE ( 'NONE', *, *, #182, .T. ) ;
#105 = APPLICATION_CONTEXT ( 'configuration controlled 3d designs of mechanical parts and assemblies' ) ;
#106 = APPROVAL_ROLE ( '' ) ;
#107 = APPROVAL ( #160, 'æœª' ) ;
#108 = EDGE_LOOP ( 'NONE', ( #236, #63, #35, #215 ) ) ;
#109 = VECTOR ( 'NONE', #4, 1000.000000000000000 ) ;
#110 = CARTESIAN_POINT ( 'NONE',  ( -150.0000000000000284, -19.99999999999998934, 30.00000000000000000 ) ) ;
#111 = EDGE_CURVE ( 'NONE', #123, #217, #58, .T. ) ;
#112 = LINE ( 'NONE', #21, #9 ) ;
#113 = LOCAL_TIME ( 15, 16, 0.000000000000000000, #171 ) ;
#114 = CARTESIAN_POINT ( 'NONE',  ( -150.0000000000000284, -19.99999999999998934, 0.000000000000000000 ) ) ;
#115 = LINE ( 'NONE', #133, #145 ) ;
#116 = DIRECTION ( 'NONE',  ( 0.000000000000000000, 0.000000000000000000, -1.000000000000000000 ) ) ;
#117 = ORIENTED_EDGE ( 'NONE', *, *, #93, .F. ) ;
#118 = AXIS2_PLACEMENT_3D ( 'NONE', #48, #237, #143 ) ;
#119 = PERSON_AND_ORGANIZATION ( #129, #17 ) ;
#120 = DIRECTION ( 'NONE',  ( 0.000000000000000000, 1.000000000000000000, 0.000000000000000000 ) ) ;
#121 = ORIENTED_EDGE ( 'NONE', *, *, #140, .F. ) ;
#122 = PERSON_AND_ORGANIZATION ( #129, #17 ) ;
#123 = VERTEX_POINT ( 'NONE', #57 ) ;
#124 = DATE_AND_TIME ( #50, #94 ) ;
#125 = PERSON_AND_ORGANIZATION ( #129, #17 ) ;
#126 = DATE_TIME_ROLE ( 'creation_date' ) ;
#127 = EDGE_CURVE ( 'NONE', #97, #14, #162, .T. ) ;
#128 = VECTOR ( 'NONE', #23, 1000.000000000000000 ) ;
#129 = PERSON ( 'æœª', 'æœª', 'æœª', ('æœª'), ('æœª'), ('æœª') ) ;
#130 = DIRECTION ( 'NONE',  ( 0.000000000000000000, 0.000000000000000000, 1.000000000000000000 ) ) ;
#131 = LINE ( 'NONE', #205, #202 ) ;
#132 = CARTESIAN_POINT ( 'NONE',  ( 150.0000000000000000, -19.99999999999998934, 30.00000000000000000 ) ) ;
#133 = CARTESIAN_POINT ( 'NONE',  ( 150.0000000000000000, 20.00000000000000000, 30.00000000000000000 ) ) ;
#134 = ORIENTED_EDGE ( 'NONE', *, *, #93, .T. ) ;
#135 = APPROVAL ( #51, 'æœª' ) ;
#136 = ORIENTED_EDGE ( 'NONE', *, *, #194, .T. ) ;
#137 = ORIENTED_EDGE ( 'NONE', *, *, #218, .T. ) ;
#138 =( NAMED_UNIT ( * ) SI_UNIT ( $, .STERADIAN. ) SOLID_ANGLE_UNIT ( ) );
#139 = APPROVAL_PERSON_ORGANIZATION ( #198, #153, #106 ) ;
#140 = EDGE_CURVE ( 'NONE', #62, #123, #131, .T. ) ;
#141 = CALENDAR_DATE ( 2026, 22, 3 ) ;
#142 = LINE ( 'NONE', #45, #147 ) ;
#143 = DIRECTION ( 'NONE',  ( 1.000000000000000000, 0.000000000000000000, 0.000000000000000000 ) ) ;
#144 = PERSON_AND_ORGANIZATION_ROLE ( 'creator' ) ;
#145 = VECTOR ( 'NONE', #226, 1000.000000000000000 ) ;
#146 = CC_DESIGN_DATE_AND_TIME_ASSIGNMENT ( #33, #126, ( #231 ) ) ;
#147 = VECTOR ( 'NONE', #120, 1000.000000000000000 ) ;
#148 = DIRECTION ( 'NONE',  ( 0.000000000000000000, 1.000000000000000000, 0.000000000000000000 ) ) ;
#149 = CC_DESIGN_APPROVAL ( #153, ( #231 ) ) ;
#150 = DIRECTION ( 'NONE',  ( 0.000000000000000000, 1.000000000000000000, 0.000000000000000000 ) ) ;
#151 = DIRECTION ( 'NONE',  ( 0.000000000000000000, -1.000000000000000000, 0.000000000000000000 ) ) ;
#152 = FACE_OUTER_BOUND ( 'NONE', #24, .T. ) ;
#153 = APPROVAL ( #196, 'æœª' ) ;
#154 = PLANE ( 'NONE',  #32 ) ;
#155 = DIRECTION ( 'NONE',  ( 0.000000000000000000, 0.000000000000000000, -1.000000000000000000 ) ) ;
#156 = PLANE ( 'NONE',  #169 ) ;
#157 = PERSON_AND_ORGANIZATION ( #129, #17 ) ;
#158 = APPROVAL_DATE_TIME ( #28, #135 ) ;
#159 = CALENDAR_DATE ( 2026, 22, 3 ) ;
#160 = APPROVAL_STATUS ( 'not_yet_approved' ) ;
#161 = VECTOR ( 'NONE', #227, 1000.000000000000000 ) ;
#162 = LINE ( 'NONE', #74, #71 ) ;
#163 = LINE ( 'NONE', #110, #220 ) ;
#164 = CARTESIAN_POINT ( 'NONE',  ( -150.0000000000000284, -19.99999999999998934, 30.00000000000000000 ) ) ;
#165 = VERTEX_POINT ( 'NONE', #132 ) ;
#166 = DIRECTION ( 'NONE',  ( 0.000000000000000000, -0.000000000000000000, 1.000000000000000000 ) ) ;
#167 = ORIENTED_EDGE ( 'NONE', *, *, #102, .F. ) ;
#168 = DATE_AND_TIME ( #141, #185 ) ;
#169 = AXIS2_PLACEMENT_3D ( 'NONE', #203, #148, #166 ) ;
#170 = MECHANICAL_CONTEXT ( 'NONE', #68, 'mechanical' ) ;
#171 = COORDINATED_UNIVERSAL_TIME_OFFSET ( 8, 0, .AHEAD. ) ;
#172 = APPLICATION_PROTOCOL_DEFINITION ( 'international standard', 'config_control_design', 1994, #105 ) ;
#173 = CALENDAR_DATE ( 2026, 22, 3 ) ;
#174 = ORIENTED_EDGE ( 'NONE', *, *, #25, .T. ) ;
#175 = DIRECTION ( 'NONE',  ( 1.000000000000000000, 0.000000000000000000, 0.000000000000000000 ) ) ;
#176 = APPLICATION_PROTOCOL_DEFINITION ( 'international standard', 'config_control_design', 1994, #68 ) ;
#177 = CC_DESIGN_PERSON_AND_ORGANIZATION_ASSIGNMENT ( #125, #12, ( #1 ) ) ;
#178 = CC_DESIGN_APPROVAL ( #107, ( #200 ) ) ;
#179 = ADVANCED_FACE ( 'NONE', ( #152 ), #95, .F. ) ;
#180 = CLOSED_SHELL ( 'NONE', ( #69, #179, #199, #19, #55, #18 ) ) ;
#181 = AXIS2_PLACEMENT_3D ( 'NONE', #184, #151, #22 ) ;
#182 = EDGE_CURVE ( 'NONE', #20, #97, #40, .T. ) ;
#183 = CARTESIAN_POINT ( 'NONE',  ( 150.0000000000000000, -19.99999999999998934, 0.000000000000000000 ) ) ;
#184 = CARTESIAN_POINT ( 'NONE',  ( -150.0000000000000284, 20.00000000000000000, 30.00000000000000000 ) ) ;
#185 = LOCAL_TIME ( 15, 16, 0.000000000000000000, #214 ) ;
#186 = CC_DESIGN_PERSON_AND_ORGANIZATION_ASSIGNMENT ( #100, #197, ( #200 ) ) ;
#187 = LINE ( 'NONE', #2, #109 ) ;
#188 = ORIENTED_EDGE ( 'NONE', *, *, #127, .F. ) ;
#189 = DIRECTION ( 'NONE',  ( -0.000000000000000000, -0.000000000000000000, -1.000000000000000000 ) ) ;
#190 = DIRECTION ( 'NONE',  ( -1.000000000000000000, 0.000000000000000000, -0.000000000000000000 ) ) ;
#191 = EDGE_LOOP ( 'NONE', ( #104, #77, #117, #5 ) ) ;
#192 = PERSON_AND_ORGANIZATION_ROLE ( 'creator' ) ;
#193 =( NAMED_UNIT ( * ) PLANE_ANGLE_UNIT ( ) SI_UNIT ( $, .RADIAN. ) );
#194 = EDGE_CURVE ( 'NONE', #123, #209, #96, .T. ) ;
#195 = EDGE_LOOP ( 'NONE', ( #230, #167, #210, #11 ) ) ;
#196 = APPROVAL_STATUS ( 'not_yet_approved' ) ;
#197 = PERSON_AND_ORGANIZATION_ROLE ( 'design_supplier' ) ;
#198 = PERSON_AND_ORGANIZATION ( #129, #17 ) ;
#199 = ADVANCED_FACE ( 'NONE', ( #60 ), #208, .F. ) ;
#200 = PRODUCT_DEFINITION_FORMATION_WITH_SPECIFIED_SOURCE ( 'ä»', '', #1, .NOT_KNOWN. ) ;
#201 = EDGE_LOOP ( 'NONE', ( #137, #43, #136, #134 ) ) ;
#202 = VECTOR ( 'NONE', #41, 1000.000000000000000 ) ;
#203 = CARTESIAN_POINT ( 'NONE',  ( -150.0000000000000284, -19.99999999999998934, 30.00000000000000000 ) ) ;
#204 = MANIFOLD_SOLID_BREP ( 'Í¹Ì¨-À­Éì1', #180 ) ;
#205 = CARTESIAN_POINT ( 'NONE',  ( -150.0000000000000284, 20.00000000000000000, 30.00000000000000000 ) ) ;
#206 = CARTESIAN_POINT ( 'NONE',  ( -150.0000000000000284, -19.99999999999998934, 0.000000000000000000 ) ) ;
#207 = PRODUCT_DEFINITION_SHAPE ( 'NONE', 'NONE',  #231 ) ;
#208 = PLANE ( 'NONE',  #29 ) ;
#209 = VERTEX_POINT ( 'NONE', #90 ) ;
#210 = ORIENTED_EDGE ( 'NONE', *, *, #218, .F. ) ;
#211 = PERSON_AND_ORGANIZATION ( #129, #17 ) ;
#212 = PRODUCT_RELATED_PRODUCT_CATEGORY ( 'detail', '', ( #1 ) ) ;
#213 = DESIGN_CONTEXT ( 'detailed design', #105, 'design' ) ;
#214 = COORDINATED_UNIVERSAL_TIME_OFFSET ( 8, 0, .AHEAD. ) ;
#215 = ORIENTED_EDGE ( 'NONE', *, *, #111, .T. ) ;
#216 = COORDINATED_UNIVERSAL_TIME_OFFSET ( 8, 0, .AHEAD. ) ;
#217 = VERTEX_POINT ( 'NONE', #83 ) ;
#218 = EDGE_CURVE ( 'NONE', #165, #62, #142, .T. ) ;
#219 = DIRECTION ( 'NONE',  ( -0.000000000000000000, -1.000000000000000000, -0.000000000000000000 ) ) ;
#220 = VECTOR ( 'NONE', #189, 1000.000000000000000 ) ;
#221 = APPROVAL_PERSON_ORGANIZATION ( #157, #135, #82 ) ;
#222 = CC_DESIGN_PERSON_AND_ORGANIZATION_ASSIGNMENT ( #119, #192, ( #200 ) ) ;
#223 = DIRECTION ( 'NONE',  ( -1.000000000000000000, 0.000000000000000000, 0.000000000000000000 ) ) ;
#224 = EDGE_CURVE ( 'NONE', #217, #20, #232, .T. ) ;
#225 = CARTESIAN_POINT ( 'NONE',  ( -150.0000000000000284, 20.00000000000000000, 30.00000000000000000 ) ) ;
#226 = DIRECTION ( 'NONE',  ( -0.000000000000000000, -0.000000000000000000, -1.000000000000000000 ) ) ;
#227 = DIRECTION ( 'NONE',  ( -0.000000000000000000, -1.000000000000000000, -0.000000000000000000 ) ) ;
#228 = ORIENTED_EDGE ( 'NONE', *, *, #111, .F. ) ;
#229 = CARTESIAN_POINT ( 'NONE',  ( 150.0000000000000000, 20.00000000000000000, 30.00000000000000000 ) ) ;
#230 = ORIENTED_EDGE ( 'NONE', *, *, #127, .T. ) ;
#231 = PRODUCT_DEFINITION ( 'æœ', '', #200, #213 ) ;
#232 = LINE ( 'NONE', #89, #44 ) ;
#233 = CC_DESIGN_APPROVAL ( #135, ( #86 ) ) ;
#234 = APPROVAL_ROLE ( '' ) ;
#235 = CC_DESIGN_PERSON_AND_ORGANIZATION_ASSIGNMENT ( #122, #144, ( #231 ) ) ;
#236 = ORIENTED_EDGE ( 'NONE', *, *, #224, .T. ) ;
#237 = DIRECTION ( 'NONE',  ( 0.000000000000000000, 0.000000000000000000, 1.000000000000000000 ) ) ;
ENDSEC;
END-ISO-10303-21;
